<svg width="58" height="55" viewBox="0 0 58 55" fill="none" xmlns="http://www.w3.org/2000/svg">
<g clip-path="url(#clip0_525_3061)">
<path fill-rule="evenodd" clip-rule="evenodd" d="M24.2438 3.03032C24.298 1.39387 25.72 0.09375 27.4557 0.09375H32.2761C34.0118 0.09375 35.4338 1.39387 35.488 3.03032L35.5163 3.88281H37.0964C38.8712 3.88281 40.3099 5.23995 40.3099 6.91406V8.75256C43.8128 8.00483 47.5937 8.50429 50.8027 11.0268C57.4693 16.2672 56.8559 27.2523 48.944 33.2608C47.0347 34.7108 45.5347 35.9129 44.5018 37.1515C44.2662 37.4341 44.0643 37.7075 43.8944 37.9751L47.1512 38.3906C48.745 38.594 49.934 39.8774 49.934 41.3945V47.0781C49.934 48.7522 48.4953 50.1094 46.7205 50.1094H13.0113C11.2365 50.1094 9.79777 48.7522 9.79777 47.0781V41.3945C9.79777 39.8774 10.9868 38.594 12.5806 38.3906L15.8374 37.9751C15.6675 37.7075 15.4656 37.4341 15.23 37.1515C14.1971 35.9129 12.6971 34.7108 10.7878 33.2608C2.87586 27.2523 2.26245 16.2672 8.92908 11.0268C12.1381 8.50429 15.919 8.00483 19.4219 8.75256V6.91406C19.4219 5.23995 20.8606 3.88281 22.6354 3.88281H24.2155L24.2438 3.03032Z" fill="#F4F7FA"/>
<path fill-rule="evenodd" clip-rule="evenodd" d="M27.4557 3.125H32.276L32.4016 6.91406H37.0963V11.4609H32.5522L32.7729 16.6087C32.861 16.5109 32.9517 16.4149 33.0452 16.3212C37.4343 11.921 43.9417 9.57945 48.7454 13.3555C53.5657 17.1445 53.5657 25.8594 46.9288 30.8997C43.1691 33.7549 39.8016 36.5073 39.9675 40.533L46.7205 41.3945V47.0781H13.0113V41.3945L19.7642 40.533C19.9301 36.5073 16.5626 33.7549 12.803 30.8997C6.166 25.8594 6.166 17.1445 10.9863 13.3555C15.79 9.57945 22.2975 11.921 26.6865 16.3212C26.78 16.4149 26.8707 16.5109 26.9588 16.6087L27.1796 11.4609H22.6354V6.91406H27.3302L27.4557 3.125ZM22.915 20.5343C25.8608 25.0857 26.2506 30.4062 26.2506 32.72C24.7741 32.7225 19.208 30.4127 16.2611 26.6207C14.1394 23.8907 13.5862 19.8404 15.4049 18.268C17.2236 16.6956 21.0739 17.6897 22.915 20.5343ZM36.8167 20.5343C33.871 25.0857 33.4811 30.4062 33.4811 32.72C34.9576 32.7225 40.5237 30.4127 43.4707 26.6207C45.5923 23.8907 46.1455 19.8404 44.3268 18.268C42.5081 16.6956 38.6578 17.6897 36.8167 20.5343Z" fill="#34364C"/>
</g>
<defs>
<clipPath id="clip0_525_3061">
<rect width="57.8438" height="54.5625" fill="white" transform="translate(0.140625 0.09375)"/>
</clipPath>
</defs>
</svg>
