<svg width="59" height="55" viewBox="0 0 59 55" fill="none" xmlns="http://www.w3.org/2000/svg">
<path d="M22.0309 12.8885C21.708 12.0518 21.5314 11.1486 21.5314 10.2076C21.5314 5.87746 25.2528 2.36719 29.8434 2.36719C34.4339 2.36719 38.1553 5.87746 38.1553 10.2076C38.1553 11.476 37.834 12.6784 37.2643 13.7416C38.084 13.7951 38.8806 14.1435 39.4614 14.7695C42.6168 18.1711 45.3781 23.0212 45.3781 28.6429C45.3781 32.662 43.9112 35.6402 41.929 37.786L45.6937 38.4089C47.2309 38.6632 48.3521 39.9224 48.3521 41.3945V47.0781C48.3521 47.8821 48.0135 48.6531 47.4109 49.2216C46.8082 49.79 45.9909 50.1094 45.1386 50.1094L14.5481 50.1094C12.7733 50.1094 11.3346 48.7522 11.3346 47.0781V41.3945C11.3346 39.9241 12.4533 38.6658 13.9883 38.4096L17.3843 37.8429C15.3751 35.693 13.8838 32.6981 13.8838 28.6429C13.8838 24.2569 15.6857 20.4371 17.7991 17.5098C19.1275 15.6699 20.6314 14.1078 22.0309 12.8885Z" fill="#F4F7FA"/>
<path d="M31.4193 28.2421H28.2058C28.2058 22.6761 29.9955 17.1195 33.9549 13.0521C34.5753 12.2555 34.9418 11.2719 34.9418 10.2076C34.9418 7.55158 32.6592 5.39844 29.8434 5.39844C27.0277 5.39844 24.745 7.55158 24.745 10.2076C24.745 11.518 25.3007 12.7061 26.2018 13.5735C23.017 15.7151 17.0974 21.4556 17.0974 28.6429C17.0974 35.8961 23.1261 38.8325 26.2888 39.4354L14.5482 41.3945V47.0781L45.1387 47.0781V41.3945L33.1197 39.4062C36.3181 38.7421 42.1646 35.7856 42.1646 28.6429C42.1646 23.966 39.8549 19.7969 37.043 16.7656C33.9549 19.0391 31.4193 24.3438 31.4193 28.2421Z" fill="#34364C"/>
</svg>
