<svg width="58" height="55" viewBox="0 0 58 55" fill="none" xmlns="http://www.w3.org/2000/svg">
<path d="M14.4765 7.67188C14.4765 8.4201 14.6041 9.13999 14.8399 9.81333L13.2537 10.5152C11.9387 9.22943 10.0931 8.4297 8.04944 8.4297C4.05616 8.4297 0.81897 11.4833 0.81897 15.25C0.81897 18.6077 3.39125 21.3987 6.77841 21.9653L10.5881 34.2863C10.6677 34.5434 10.783 34.7896 10.9311 35.0182L13.1268 38.4074L13.1133 38.4096C11.5783 38.6658 10.4596 39.9241 10.4596 41.3945V47.0781C10.4596 48.7522 11.8983 50.1094 13.6731 50.1094L44.2636 50.1094C45.1159 50.1094 45.9332 49.79 46.5359 49.2215C47.1385 48.6531 47.4771 47.8821 47.4771 47.0781V41.3945C47.4771 39.9224 46.3559 38.6631 44.8187 38.4088L44.7541 38.3982L46.9438 35.0182C47.0919 34.7896 47.2073 34.5434 47.2868 34.2863L51.0965 21.9653C54.4837 21.3987 57.0559 18.6077 57.0559 15.25C57.0559 11.4833 53.8188 8.4297 49.8255 8.4297C47.7793 8.4297 45.9316 9.23144 44.6163 10.5201L43.0328 9.81944C43.27 9.14434 43.3984 8.42236 43.3984 7.67188C43.3984 3.90512 40.1612 0.851562 36.1679 0.851562C32.1747 0.851562 28.9375 3.90512 28.9375 7.67188C28.9375 3.90512 25.7003 0.851562 21.707 0.851562C17.7137 0.851562 14.4765 3.90512 14.4765 7.67188Z" fill="#F4F7FA"/>
<path d="M23.149 11.2095C24.6551 10.6629 25.724 9.28514 25.724 7.67188C25.724 5.57923 23.9256 3.88281 21.7071 3.88281C19.4886 3.88281 17.6901 5.57923 17.6901 7.67188C17.6901 9.6057 19.226 11.2012 21.2098 11.4322L19.4185 25.1016L10.7828 18.0267C11.5724 17.3348 12.0664 16.3468 12.0664 15.25C12.0664 13.1574 10.268 11.4609 8.04952 11.4609C5.83103 11.4609 4.03259 13.1574 4.03259 15.25C4.03259 17.3426 5.83103 19.0391 8.04952 19.0391C8.44005 19.0391 8.81757 18.9865 9.17455 18.8885L13.6732 33.4375L18.3253 40.6182L13.6732 41.3945V47.0781L44.2637 47.0781V41.3945L39.5518 40.615L44.2019 33.4375L48.7005 18.8885C49.0575 18.9865 49.435 19.0391 49.8256 19.0391C52.0441 19.0391 53.8425 17.3426 53.8425 15.25C53.8425 13.1574 52.0441 11.4609 49.8256 11.4609C47.6071 11.4609 45.8086 13.1574 45.8086 15.25C45.8086 16.3468 46.3027 17.3348 47.0923 18.0267L38.4566 25.1016L36.6652 11.4322C38.6491 11.2012 40.1849 9.6057 40.1849 7.67188C40.1849 5.57923 38.3865 3.88281 36.168 3.88281C33.9495 3.88281 32.1511 5.57923 32.1511 7.67188C32.1511 9.28514 33.2199 10.6629 34.7261 11.2095L28.9375 23.5859L23.149 11.2095Z" fill="#34364C"/>
</svg>
