<svg width="59" height="55" viewBox="0 0 59 55" fill="none" xmlns="http://www.w3.org/2000/svg">
<path d="M24.618 0.477938C25.6758 0.36574 26.7239 0.754914 27.4167 1.51718L33.9731 8.73039C41.5024 10.4855 45.8649 15.8334 48.2777 22.5096C50.7639 29.3889 51.3789 38.1223 51.3789 47.0781C51.3789 48.7522 49.9402 50.1094 48.1654 50.1094H18.203C16.497 50.1094 15.0883 48.8518 14.9944 47.245C14.9105 45.8111 15.2603 43.3231 16.3261 40.7818L16.3457 40.7353C13.3191 42.2677 9.96024 41.9006 7.46677 40.226C4.43651 38.1909 2.75161 34.207 4.67664 30.2727C6.06479 27.4357 7.56092 25.9333 8.69273 24.7971C9.74994 23.7358 10.1905 23.269 10.5022 22.0929C12.392 14.9627 16.2797 10.8552 20.4549 8.98068C20.3945 8.16838 20.4436 7.38579 20.5492 6.67527C20.8122 4.90668 21.4667 3.27231 22.1339 2.07751C22.63 1.18914 23.5602 0.590135 24.618 0.477938Z" fill="#F4F7FA"/>
<path fill-rule="evenodd" clip-rule="evenodd" d="M32.2347 11.4749L24.9771 3.49017C23.9265 5.37152 22.908 8.69194 24.3723 11.089C23.6616 11.1486 22.9824 11.262 22.457 11.4609C19.1052 12.7297 15.4274 16.0078 13.6198 22.8281C13.0963 24.803 12.1543 25.7487 11.0346 26.8727C9.97846 27.933 8.76427 29.1519 7.59436 31.5429C5.18421 36.4687 11.6887 41.3945 16.4316 36.9206C19.0981 34.4054 21.429 33.367 23.3858 32.4952C26.2024 31.2405 28.2443 30.3308 29.3977 25.8594C29.9465 27.9451 29.727 32.8674 24.4589 35.8708C19.1908 38.8743 18.0933 45.2009 18.203 47.0781H48.1653C48.1653 29.2568 45.664 13.8592 32.2347 11.4749Z" fill="#34364C"/>
<ellipse cx="23.2604" cy="20.5547" rx="2.41016" ry="2.27344" fill="#F4F7FA"/>
</svg>
