<svg width="59" height="56" viewBox="0 0 59 56" fill="none" xmlns="http://www.w3.org/2000/svg">
<path d="M19.2048 32.0103C18.8214 32.504 18.364 33.0181 17.8307 33.547C15.9487 35.4135 13.6407 36.9492 12.151 37.7521L11.9004 37.8872C10.8992 38.4269 10.2812 39.4313 10.2812 40.5191V47.8281C10.2812 49.5022 11.72 50.8594 13.4948 50.8594H44.8268C46.6016 50.8594 48.0404 49.5022 48.0404 47.8281V40.5191C48.0404 39.4313 47.4225 38.4269 46.4212 37.8872L46.1706 37.7521C44.681 36.9492 42.3729 35.4135 40.4909 33.547C39.9576 33.0181 39.5002 32.504 39.1168 32.0103C40.5271 31.6898 41.575 30.492 41.575 29.0632V24.1289C41.575 23.144 41.0677 22.2205 40.2147 21.6525L38.8498 20.7437C39.6373 19.3004 40.083 17.6625 40.083 15.9278C40.083 10.1083 35.0816 5.39062 28.9121 5.39062C22.7426 5.39062 17.7413 10.1083 17.7413 15.9278C17.7413 17.76 18.2383 19.4838 19.1101 20.9846L18.1069 21.6525C17.2539 22.2205 16.7466 23.144 16.7466 24.1289V29.0632C16.7466 30.492 17.7945 31.6898 19.2048 32.0103Z" fill="#F4F7FA"/>
<path d="M36.8694 15.9278C36.8694 18.1048 35.887 20.0653 34.3174 21.4363L38.3614 24.1289V29.0632H34.4025C34.5934 31.3504 36.1492 33.6394 38.1623 35.636C40.2988 37.7549 42.8692 39.4639 44.5762 40.384L44.8268 40.5191V47.8281H13.4948V40.5191L13.7453 40.384C15.4524 39.4639 18.0228 37.7549 20.1592 35.636C22.1724 33.6394 23.7281 31.3504 23.919 29.0632H19.9601V24.1289L23.7264 21.6212C22.0294 20.2446 20.9548 18.2046 20.9548 15.9278C20.9548 11.7824 24.5174 8.42188 28.9121 8.42188C33.3068 8.42188 36.8694 11.7824 36.8694 15.9278Z" fill="#34364C"/>
</svg>
