<svg width="59" height="55" viewBox="0 0 59 55" fill="none" xmlns="http://www.w3.org/2000/svg">
<path d="M21.5286 3.88281C22.114 3.88281 22.6627 4.03043 23.1354 4.28834C23.6081 4.03043 24.1569 3.88281 24.7422 3.88281H33.5794C34.1648 3.88281 34.7135 4.03043 35.1862 4.28834C35.6589 4.03043 36.2076 3.88281 36.793 3.88281H44.8268C46.6016 3.88281 48.0404 5.23995 48.0404 6.91406V13.7344C48.0404 14.6885 47.5641 15.5869 46.7549 16.1594L41.7963 19.6674L43.2004 31.5871C43.5721 34.7429 45.1293 36.344 47.3977 39.1969C47.8148 39.7216 48.0404 40.3598 48.0404 41.0156V47.0781C48.0404 48.7522 46.6016 50.1094 44.8268 50.1094H13.4948C11.72 50.1094 10.2812 48.7522 10.2812 47.0781V41.0156C10.2812 40.3598 10.5068 39.7216 10.924 39.1969C13.1923 36.344 14.7495 34.7429 15.1212 31.5871L16.5253 19.6674L11.5667 16.1594C10.7575 15.5869 10.2812 14.6885 10.2812 13.7344V6.91406C10.2812 5.23995 11.72 3.88281 13.4948 3.88281H21.5286Z" fill="#F4F7FA"/>
<path d="M13.4948 6.91406H21.5286V11.4609H24.7421V6.91406H33.5794V11.4609H36.7929V6.91406H44.8268V13.7344L38.3997 18.2812L40.0065 31.9219H18.3151L19.9218 18.2812L13.4948 13.7344V6.91406Z" fill="#34364C"/>
<path d="M18.3151 34.9531H40.0065L44.8268 41.0156V47.0781H13.4948V41.0156L18.3151 34.9531Z" fill="#34364C"/>
</svg>
