<svg width="58" height="55" viewBox="0 0 58 55" fill="none" xmlns="http://www.w3.org/2000/svg">
<g clip-path="url(#clip0_525_3044)">
<path fill-rule="evenodd" clip-rule="evenodd" d="M24.2438 3.28032C24.298 1.64387 25.72 0.34375 27.4557 0.34375H32.2761C34.0118 0.34375 35.4338 1.64387 35.488 3.28032L35.5163 4.13281H37.0964C38.8712 4.13281 40.3099 5.48995 40.3099 7.16406V9.00256C43.8128 8.25483 47.5937 8.75429 50.8027 11.2768C57.4693 16.5172 56.8559 27.5023 48.944 33.5108C47.0347 34.9608 45.5347 36.1629 44.5018 37.4015C44.2662 37.6841 44.0643 37.9575 43.8944 38.2251L47.1512 38.6406C48.745 38.844 49.934 40.1274 49.934 41.6445V47.3281C49.934 49.0022 48.4953 50.3594 46.7205 50.3594H13.0113C11.2365 50.3594 9.79777 49.0022 9.79777 47.3281V41.6445C9.79777 40.1274 10.9868 38.844 12.5806 38.6406L15.8374 38.2251C15.6675 37.9575 15.4656 37.6841 15.23 37.4015C14.1971 36.1629 12.6971 34.9608 10.7878 33.5108C2.87586 27.5023 2.26245 16.5172 8.92908 11.2768C12.1381 8.75429 15.919 8.25483 19.4219 9.00256V7.16406C19.4219 5.48995 20.8606 4.13281 22.6354 4.13281H24.2155L24.2438 3.28032Z" fill="#34364C"/>
<path fill-rule="evenodd" clip-rule="evenodd" d="M27.4557 3.375H32.276L32.4016 7.16406H37.0963V11.7109H32.5522L32.7729 16.8587C32.861 16.7609 32.9517 16.6649 33.0452 16.5712C37.4343 12.171 43.9417 9.82945 48.7454 13.6055C53.5657 17.3945 53.5657 26.1094 46.9288 31.1497C43.1691 34.0049 39.8016 36.7573 39.9675 40.783L46.7205 41.6445V47.3281H13.0113V41.6445L19.7642 40.783C19.9301 36.7573 16.5626 34.0049 12.803 31.1497C6.166 26.1094 6.166 17.3945 10.9863 13.6055C15.79 9.82945 22.2975 12.171 26.6865 16.5712C26.78 16.6649 26.8707 16.7609 26.9588 16.8587L27.1796 11.7109H22.6354V7.16406H27.3302L27.4557 3.375ZM22.915 20.7843C25.8608 25.3357 26.2506 30.6562 26.2506 32.97C24.7741 32.9725 19.208 30.6627 16.2611 26.8707C14.1394 24.1407 13.5862 20.0904 15.4049 18.518C17.2236 16.9456 21.0739 17.9397 22.915 20.7843ZM36.8167 20.7843C33.871 25.3357 33.4811 30.6562 33.4811 32.97C34.9576 32.9725 40.5237 30.6627 43.4707 26.8707C45.5923 24.1407 46.1455 20.0904 44.3268 18.518C42.5081 16.9456 38.6578 17.9397 36.8167 20.7843Z" fill="#F4F7FA"/>
</g>
<defs>
<clipPath id="clip0_525_3044">
<rect width="57.8438" height="54.5625" fill="white" transform="translate(0.140625 0.34375)"/>
</clipPath>
</defs>
</svg>
