<svg width="59" height="56" viewBox="0 0 59 56" fill="none" xmlns="http://www.w3.org/2000/svg">
<path d="M19.2048 31.7603C18.8214 32.254 18.364 32.7681 17.8307 33.297C15.9487 35.1635 13.6407 36.6992 12.151 37.5021L11.9004 37.6372C10.8992 38.1769 10.2812 39.1813 10.2812 40.2691V47.5781C10.2812 49.2522 11.72 50.6094 13.4948 50.6094H44.8268C46.6016 50.6094 48.0404 49.2522 48.0404 47.5781V40.2691C48.0404 39.1813 47.4225 38.1769 46.4212 37.6372L46.1706 37.5021C44.681 36.6992 42.3729 35.1635 40.4909 33.297C39.9576 32.7681 39.5002 32.254 39.1168 31.7603C40.5271 31.4398 41.575 30.242 41.575 28.8132V23.8789C41.575 22.894 41.0677 21.9705 40.2147 21.4025L38.8498 20.4937C39.6373 19.0504 40.083 17.4125 40.083 15.6778C40.083 9.85829 35.0816 5.14062 28.9121 5.14062C22.7426 5.14062 17.7413 9.85829 17.7413 15.6778C17.7413 17.51 18.2383 19.2338 19.1101 20.7346L18.1069 21.4025C17.2539 21.9705 16.7466 22.894 16.7466 23.8789V28.8132C16.7466 30.242 17.7945 31.4398 19.2048 31.7603Z" fill="#34364C"/>
<path d="M36.8694 15.6778C36.8694 17.8548 35.887 19.8153 34.3174 21.1863L38.3614 23.8789V28.8132H34.4025C34.5934 31.1004 36.1492 33.3894 38.1623 35.386C40.2988 37.5049 42.8692 39.2139 44.5762 40.134L44.8268 40.2691V47.5781H13.4948V40.2691L13.7453 40.134C15.4524 39.2139 18.0228 37.5049 20.1592 35.386C22.1724 33.3894 23.7281 31.1004 23.919 28.8132H19.9601V23.8789L23.7264 21.3712C22.0294 19.9946 20.9548 17.9546 20.9548 15.6778C20.9548 11.5324 24.5174 8.17188 28.9121 8.17188C33.3068 8.17188 36.8694 11.5324 36.8694 15.6778Z" fill="#F4F7FA"/>
</svg>
