<svg width="59" height="55" viewBox="0 0 59 55" fill="none" xmlns="http://www.w3.org/2000/svg">
<path d="M24.618 0.727938C25.6758 0.61574 26.7239 1.00491 27.4167 1.76718L33.9731 8.98039C41.5024 10.7355 45.8649 16.0834 48.2777 22.7596C50.7639 29.6389 51.3789 38.3723 51.3789 47.3281C51.3789 49.0022 49.9402 50.3594 48.1654 50.3594H18.203C16.497 50.3594 15.0883 49.1018 14.9944 47.495C14.9105 46.0611 15.2603 43.5731 16.3261 41.0318L16.3457 40.9853C13.3191 42.5177 9.96024 42.1506 7.46677 40.476C4.43651 38.4409 2.75161 34.457 4.67664 30.5227C6.06479 27.6857 7.56092 26.1833 8.69273 25.0471C9.74994 23.9858 10.1905 23.519 10.5022 22.3429C12.392 15.2127 16.2797 11.1052 20.4549 9.23068C20.3945 8.41838 20.4436 7.63579 20.5492 6.92527C20.8122 5.15668 21.4667 3.52231 22.1339 2.32751C22.63 1.43914 23.5602 0.840135 24.618 0.727938Z" fill="#34364C"/>
<path fill-rule="evenodd" clip-rule="evenodd" d="M32.2347 11.725L24.9771 3.7402C23.9265 5.62155 22.908 8.94197 24.3723 11.339C23.6616 11.3987 22.9824 11.5121 22.457 11.7109C19.1052 12.9798 15.4274 16.2578 13.6198 23.0781C13.0963 25.053 12.1543 25.9988 11.0346 27.1228C9.97846 28.1831 8.76427 29.402 7.59436 31.793C5.18421 36.7188 11.6887 41.6445 16.4316 37.1707C19.0981 34.6554 21.429 33.617 23.3858 32.7452C26.2024 31.4905 28.2443 30.5808 29.3977 26.1094C29.9465 28.1951 29.727 33.1174 24.4589 36.1208C19.1908 39.1243 18.0933 45.451 18.203 47.3281H48.1653C48.1653 29.5068 45.664 14.1093 32.2347 11.725Z" fill="#F4F7FA"/>
<ellipse cx="23.2604" cy="20.8047" rx="2.41016" ry="2.27344" fill="#34364C"/>
</svg>
