<svg width="59" height="55" viewBox="0 0 59 55" fill="none" xmlns="http://www.w3.org/2000/svg">
<path d="M21.5286 4.13281C22.114 4.13281 22.6627 4.28043 23.1354 4.53834C23.6081 4.28043 24.1569 4.13281 24.7422 4.13281H33.5794C34.1648 4.13281 34.7135 4.28043 35.1862 4.53834C35.6589 4.28043 36.2076 4.13281 36.793 4.13281H44.8268C46.6016 4.13281 48.0404 5.48995 48.0404 7.16406V13.9844C48.0404 14.9385 47.5641 15.8369 46.7549 16.4094L41.7963 19.9174L43.2004 31.8371C43.5721 34.9929 45.1293 36.594 47.3977 39.4469C47.8148 39.9716 48.0404 40.6098 48.0404 41.2656V47.3281C48.0404 49.0022 46.6016 50.3594 44.8268 50.3594H13.4948C11.72 50.3594 10.2812 49.0022 10.2812 47.3281V41.2656C10.2812 40.6098 10.5068 39.9716 10.924 39.4469C13.1923 36.594 14.7495 34.9929 15.1212 31.8371L16.5253 19.9174L11.5667 16.4094C10.7575 15.8369 10.2812 14.9385 10.2812 13.9844V7.16406C10.2812 5.48995 11.72 4.13281 13.4948 4.13281H21.5286Z" fill="#34364C"/>
<path d="M13.4948 7.16406H21.5286V11.7109H24.7421V7.16406H33.5794V11.7109H36.7929V7.16406H44.8268V13.9844L38.3997 18.5312L40.0065 32.1719H18.3151L19.9218 18.5312L13.4948 13.9844V7.16406Z" fill="#F4F7FA"/>
<path d="M18.3151 35.2031H40.0065L44.8268 41.2656V47.3281H13.4948V41.2656L18.3151 35.2031Z" fill="#F4F7FA"/>
</svg>
