<svg width="59" height="55" viewBox="0 0 59 55" fill="none" xmlns="http://www.w3.org/2000/svg">
<path d="M22.0309 13.1385C21.708 12.3018 21.5314 11.3986 21.5314 10.4576C21.5314 6.12746 25.2528 2.61719 29.8434 2.61719C34.4339 2.61719 38.1553 6.12746 38.1553 10.4576C38.1553 11.726 37.834 12.9284 37.2643 13.9916C38.084 14.0451 38.8806 14.3935 39.4614 15.0195C42.6168 18.4211 45.3781 23.2712 45.3781 28.8929C45.3781 32.912 43.9112 35.8902 41.929 38.036L45.6937 38.6589C47.2309 38.9132 48.3521 40.1724 48.3521 41.6445V47.3281C48.3521 48.1321 48.0135 48.9031 47.4109 49.4716C46.8082 50.04 45.9909 50.3594 45.1386 50.3594L14.5481 50.3594C12.7733 50.3594 11.3346 49.0022 11.3346 47.3281V41.6445C11.3346 40.1741 12.4533 38.9158 13.9883 38.6596L17.3843 38.0929C15.3751 35.943 13.8838 32.9481 13.8838 28.8929C13.8838 24.5069 15.6857 20.6871 17.7991 17.7598C19.1275 15.9199 20.6314 14.3578 22.0309 13.1385Z" fill="#34364C"/>
<path d="M31.4193 28.4921H28.2058C28.2058 22.9261 29.9955 17.3695 33.9549 13.3021C34.5753 12.5055 34.9418 11.5219 34.9418 10.4576C34.9418 7.80158 32.6592 5.64844 29.8434 5.64844C27.0277 5.64844 24.745 7.80158 24.745 10.4576C24.745 11.768 25.3007 12.9561 26.2018 13.8235C23.017 15.9651 17.0974 21.7056 17.0974 28.8929C17.0974 36.1461 23.1261 39.0825 26.2888 39.6854L14.5482 41.6445V47.3281L45.1387 47.3281V41.6445L33.1197 39.6562C36.3181 38.9921 42.1646 36.0356 42.1646 28.8929C42.1646 24.216 39.8549 20.0469 37.043 17.0156C33.9549 19.2891 31.4193 24.5938 31.4193 28.4921Z" fill="#F4F7FA"/>
</svg>
