<svg width="58" height="55" viewBox="0 0 58 55" fill="none" xmlns="http://www.w3.org/2000/svg">
<path d="M14.4765 7.92188C14.4765 8.6701 14.6041 9.38999 14.8399 10.0633L13.2537 10.7652C11.9387 9.47943 10.0931 8.6797 8.04944 8.6797C4.05616 8.6797 0.81897 11.7333 0.81897 15.5C0.81897 18.8577 3.39125 21.6487 6.77841 22.2153L10.5881 34.5363C10.6677 34.7934 10.783 35.0396 10.9311 35.2682L13.1268 38.6574L13.1133 38.6596C11.5783 38.9158 10.4596 40.1741 10.4596 41.6445V47.3281C10.4596 49.0022 11.8983 50.3594 13.6731 50.3594L44.2636 50.3594C45.1159 50.3594 45.9332 50.04 46.5359 49.4715C47.1385 48.9031 47.4771 48.1321 47.4771 47.3281V41.6445C47.4771 40.1724 46.3559 38.9131 44.8187 38.6588L44.7541 38.6482L46.9438 35.2682C47.0919 35.0396 47.2073 34.7934 47.2868 34.5363L51.0965 22.2153C54.4837 21.6487 57.0559 18.8577 57.0559 15.5C57.0559 11.7333 53.8188 8.6797 49.8255 8.6797C47.7793 8.6797 45.9316 9.48144 44.6163 10.7701L43.0328 10.0694C43.27 9.39434 43.3984 8.67236 43.3984 7.92188C43.3984 4.15512 40.1612 1.10156 36.1679 1.10156C32.1747 1.10156 28.9375 4.15512 28.9375 7.92188C28.9375 4.15512 25.7003 1.10156 21.707 1.10156C17.7137 1.10156 14.4765 4.15512 14.4765 7.92188Z" fill="#34364C"/>
<path d="M23.149 11.4595C24.6551 10.9129 25.724 9.53514 25.724 7.92188C25.724 5.82923 23.9256 4.13281 21.7071 4.13281C19.4886 4.13281 17.6901 5.82923 17.6901 7.92188C17.6901 9.8557 19.226 11.4512 21.2098 11.6822L19.4185 25.3516L10.7828 18.2767C11.5724 17.5848 12.0664 16.5968 12.0664 15.5C12.0664 13.4074 10.268 11.7109 8.04952 11.7109C5.83103 11.7109 4.03259 13.4074 4.03259 15.5C4.03259 17.5926 5.83103 19.2891 8.04952 19.2891C8.44005 19.2891 8.81757 19.2365 9.17455 19.1385L13.6732 33.6875L18.3253 40.8682L13.6732 41.6445V47.3281L44.2637 47.3281V41.6445L39.5518 40.865L44.2019 33.6875L48.7005 19.1385C49.0575 19.2365 49.435 19.2891 49.8256 19.2891C52.0441 19.2891 53.8425 17.5926 53.8425 15.5C53.8425 13.4074 52.0441 11.7109 49.8256 11.7109C47.6071 11.7109 45.8086 13.4074 45.8086 15.5C45.8086 16.5968 46.3027 17.5848 47.0923 18.2767L38.4566 25.3516L36.6652 11.6822C38.6491 11.4512 40.1849 9.8557 40.1849 7.92188C40.1849 5.82923 38.3865 4.13281 36.168 4.13281C33.9495 4.13281 32.1511 5.82923 32.1511 7.92188C32.1511 9.53514 33.2199 10.9129 34.7261 11.4595L28.9375 23.8359L23.149 11.4595Z" fill="#F4F7FA"/>
</svg>
